# xmcd CD database file
#
# Track frame offsets:
#	150
#	13590
#	25082
#	38702
#	49692
#	61647
#	73367
#	86005
#	107125
#	120390
#	133110
#	166100
#	176170
#	190957
#	203170
#	215905
#	229085
#	242645
#
# Disc length: 3544 seconds
#
# Revision: 2
# Processed by: cddbd v1.5.2PL0 Copyright (c) Steve Scherf et al.
# Submitted via: CDex 1.51
#
DISCID=fb0dd612
DTITLE=Various Artist - Jubilation!:  Volume One: Black Gospel
DYEAR=1900
DGENRE=Gospel
TTITLE0=Mahalia Jackson - Move On Up A Little Higher
TTITLE1=The Trumpeteers - Milky White Way
TTITLE2=The Roberta Martin Singers - The Old Ship Of Zion
TTITLE3=The Famous Blue Jay Singers of Birmingham Alabama - Jesus Met A Woman At The Well
TTITLE4=The Angelic Gospel Singers - Touch Me Lord Jesus
TTITLE5=Golden Gate Jubilee Quartet - Golden Gate Gospel Train
TTITLE6=Georgia Peach and Her Gospel Singers - Do Lord Send Me
TTITLE7=The Soul Stirrers - By And By (Parts 1 and 2)
TTITLE8=Clara Ward and The Ward Singers - How I Got Over
TTITLE9=The Swan Silvertones - Mary Don't You Weep
TTITLE10=Aretha Franklin with James Cleveland - Precious Memories
TTITLE11=Dixie Hummingbirds - Christian's Automobile
TTITLE12=Shirley Caesar - No Charge
TTITLE13=The Swanee Quintet Sit Down, Servant
TTITLE14=Edna Gallmon Cooke - Nobody But You, Lord
TTITLE15=The Pilgrim Travelers - Mother Beloved
TTITLE16=Brother Joe May - Search Me Lord
TTITLE17=The Edwin Hawkins' Singers - Oh Happy Day
EXTD=
EXTT0=
EXTT1=
EXTT2=
EXTT3=
EXTT4=
EXTT5=
EXTT6=
EXTT7=
EXTT8=
EXTT9=
EXTT10=
EXTT11=
EXTT12=
EXTT13=
EXTT14=
EXTT15=
EXTT16=
EXTT17=
PLAYORDER=
